<?xml version="1.0" encoding="UTF-8" standalone="no"?>

<svg
   width="800px"
   height="800px"
   viewBox="0 0 48 48"
   version="1.1"
   id="svg3"
   sodipodi:docname="dark-mode.svg"
   xmlns:sodipodi="http://sodipodi.sourceforge.net/DTD/sodipodi-0.dtd"
   xmlns="http://www.w3.org/2000/svg"
   xmlns:svg="http://www.w3.org/2000/svg"
   xmlns:rdf="http://www.w3.org/1999/02/22-rdf-syntax-ns#"
   xmlns:dc="http://purl.org/dc/elements/1.1/">
  <defs
     id="defs3" />
  <path
     id="path1"
     d="M 23.999918,2.5001318e-4 A 23.999875,23.999875 0 1 0 47.99975,24.000082 23.890784,23.890785 0 0 0 23.999918,2.5001318e-4 Z m 0,4.36357098682 v 8.727269 a 10.909034,10.909034 0 0 1 0,21.817984 v 8.727269 A 19.745352,19.745352 0 0 1 4.3636571,24.000082 19.745352,19.745352 0 0 1 23.999918,4.363821 Z m 0,30.545253 V 13.09109 A 10.909034,10.909034 0 0 0 13.090926,24.000082 10.909034,10.909034 0 0 0 23.999918,34.909074 Z"
     style="stroke-width:1.0909" />
</svg>
