<?xml version="1.0" encoding="UTF-8" standalone="no"?>

<svg
   width="800px"
   height="800px"
   viewBox="0 0 24 24"
   fill="none"
   version="1.1"
   id="svg3"
   sodipodi:docname="equipo.svg"
   xmlns:sodipodi="http://sodipodi.sourceforge.net/DTD/sodipodi-0.dtd"
   xmlns="http://www.w3.org/2000/svg"
   xmlns:svg="http://www.w3.org/2000/svg">
  <defs
     id="defs3" />
  <path
     id="path1"
     style="color:#000000;fill:#000000;stroke-width:1.33334;stroke-linecap:round;stroke-linejoin:round;-inkscape-stroke:none"
     d="m 12,0.66668 c -2.9297634,0 -5.3333593,2.4036678 -5.3333593,5.3333593 0,2.9296921 2.4035959,5.3332807 5.3333593,5.3332807 2.929763,0 5.33336,-2.4035886 5.33336,-5.3332807 C 17.33336,3.0703478 14.929763,0.66668 12,0.66668 Z m 0,2.6666407 c 1.488629,0 2.66664,1.1781523 2.66664,2.6667186 C 14.66664,7.4886056 13.488629,8.66668 12,8.66668 10.511371,8.66668 9.33336,7.4886056 9.33336,6.0000393 9.33336,4.511473 10.511371,3.3333207 12,3.3333207 Z M 5.3333593,12.66668 C 2.4036678,12.66668 0,15.070275 0,18.00004 c 0,2.929762 2.4036678,5.33328 5.3333593,5.33328 2.9296921,0 5.3332807,-2.403518 5.3332807,-5.33328 0,-2.929765 -2.4035886,-5.33336 -5.3332807,-5.33336 z m 13.3332807,0 c -2.929736,0 -5.33328,2.403623 -5.33328,5.33336 0,2.929736 2.403544,5.33328 5.33328,5.33328 2.929737,0 5.33336,-2.403544 5.33336,-5.33328 0,-2.929737 -2.403623,-5.33336 -5.33336,-5.33336 z M 5.3333593,15.33332 C 6.8219256,15.33332 8,16.511411 8,18.00004 c 0,1.488626 -1.1780744,2.66664 -2.6666407,2.66664 -1.4885663,0 -2.6667186,-1.178014 -2.6667186,-2.66664 0,-1.488629 1.1781523,-2.66672 2.6667186,-2.66672 z m 13.3332807,0 c 1.488655,0 2.66672,1.178065 2.66672,2.66672 0,1.488654 -1.178065,2.66664 -2.66672,2.66664 C 17.177986,20.66668 16,19.488694 16,18.00004 c 0,-1.488655 1.177986,-2.66672 2.66664,-2.66672 z" />
</svg>
