<?xml version="1.0" encoding="UTF-8" standalone="no"?>

<svg
   width="800px"
   height="800px"
   viewBox="0 0 20 20"
   version="1.1"
   id="svg1"
   sodipodi:docname="generacion.svg"
   xmlns:sodipodi="http://sodipodi.sourceforge.net/DTD/sodipodi-0.dtd"
   xmlns="http://www.w3.org/2000/svg"
   xmlns:svg="http://www.w3.org/2000/svg"
   xmlns:rdf="http://www.w3.org/1999/02/22-rdf-syntax-ns#"
   xmlns:cc="http://creativecommons.org/ns#"
   xmlns:dc="http://purl.org/dc/elements/1.1/">
  <defs
     id="defs1" />
  <path
     d="M 14,9 V 7 C 14,6.448 13.552,6 13,6 H 7 C 6.448,6 6,6.448 6,7 v 6 c 0,0.552 0.448,1 1,1 h 10 c 0.552,0 1,-0.448 1,-1 V 3 C 18,2.448 17.552,2 17,2 H 3 C 2.448,2 2,2.448 2,3 v 14 c 0,0.552 0.448,1 1,1 h 16 c 0.552,0 1,0.448 1,1 0,0.552 -0.448,1 -1,1 H 2 C 0.896,20 0,19.105 0,18 V 2 C 0,0.895 0.896,0 2,0 h 16 c 1.105,0 2,0.895 2,2 v 12 c 0,1.105 -0.895,2 -2,2 H 6 C 4.896,16 4,15.105 4,14 V 6 C 4,4.895 4.896,4 6,4 h 8 c 1.105,0 2,0.895 2,2 v 4 c 0,1.105 -0.895,2 -2,2 H 10 C 8.896,12 8,11.105 8,10 8,8.895 8.896,8 10,8 c 1.105,0 2,0.895 2,2 h 1 c 0.552,0 1,-0.448 1,-1"
     id="path1"/>
</svg>
