<?xml version="1.0" encoding="UTF-8" standalone="no"?>

<svg
   width="800px"
   height="800px"
   viewBox="0 0 24 24"
   fill="none"
   version="1.1"
   id="svg1"
   sodipodi:docname="menu-closed.svg"
   xmlns:sodipodi="http://sodipodi.sourceforge.net/DTD/sodipodi-0.dtd"
   xmlns="http://www.w3.org/2000/svg"
   xmlns:svg="http://www.w3.org/2000/svg">
  <defs
     id="defs1" />

  <path
     style="color:#000000;fill:#000000;stroke-width:1.33334;stroke-linecap:round;stroke-linejoin:round;-inkscape-stroke:none"
     d="M 1.3333334,2.6666669 A 1.3333334,1.3333334 0 0 0 0,4.0000002 1.3333334,1.3333334 0 0 0 1.3333334,5.3333335 H 22.666666 A 1.3333334,1.3333334 0 0 0 24,4.0000002 1.3333334,1.3333334 0 0 0 22.666666,2.6666669 Z m 0,8.0000001 A 1.3333334,1.3333334 0 0 0 0,12 1.3333334,1.3333334 0 0 0 1.3333334,13.333333 H 22.666666 A 1.3333334,1.3333334 0 0 0 24,12 1.3333334,1.3333334 0 0 0 22.666666,10.666667 Z m 0,8 A 1.3333334,1.3333334 0 0 0 0,20 1.3333334,1.3333334 0 0 0 1.3333334,21.333333 H 22.666666 A 1.3333334,1.3333334 0 0 0 24,20 1.3333334,1.3333334 0 0 0 22.666666,18.666667 Z"
     id="path1" />
</svg>
