<?xml version="1.0" encoding="UTF-8" standalone="no"?>

<svg
   fill="#000000"
   width="800px"
   height="800px"
   viewBox="0 0 24 24"
   version="1.1"
   id="svg1"
   sodipodi:docname="movimiento.svg"
   xmlns:sodipodi="http://sodipodi.sourceforge.net/DTD/sodipodi-0.dtd"
   xmlns="http://www.w3.org/2000/svg"
   xmlns:svg="http://www.w3.org/2000/svg">
  <defs
     id="defs1" />
  <path
     d="m 20.694545,18.281454 a 1.090909,1.090909 0 0 0 -1.058182,-0.826908 h -0.584726 c -1.502182,-1.92 -2.04,-5.502546 -2.181819,-7.6363641 h 0.584727 a 1.0909091,1.0909091 0 0 0 0,-2.1818182 h -0.06982 a 5.6127272,5.6127272 0 0 0 0.342546,-1.9090908 5.7272729,5.7272729 0 0 0 -11.454546,0 5.6127272,5.6127272 0 0 0 0.3425454,1.9090908 h -0.069818 a 1.0909091,1.0909091 0 0 0 0,2.1818182 H 7.1269089 C 6.9883634,11.952 6.4505453,15.534546 4.9450907,17.454546 H 4.3636361 A 1.090909,1.090909 0 0 0 3.3054543,18.281454 L 2.2145453,22.64509 A 1.090909,1.090909 0 0 0 3.2727271,24 H 20.727273 a 1.090909,1.090909 0 0 0 1.058182,-1.35491 z M 12,2.1818183 a 3.5498182,3.5498182 0 0 1 3.545455,3.5454546 3.445091,3.445091 0 0 1 -0.578182,1.9090908 H 9.0327271 A 3.445091,3.445091 0 0 1 8.4545453,5.7272729 3.5498182,3.5498182 0 0 1 12,2.1818183 Z M 9.3119998,9.8181819 H 14.688 a 20.634546,20.634546 0 0 0 1.790182,7.6363641 H 7.5272725 A 20.634546,20.634546 0 0 0 9.3119998,9.8181819 Z M 4.6701816,21.818182 5.2156361,19.636364 H 18.784363 l 0.545455,2.181818 z"
     id="path1"
     style="stroke-width:1.0909" />
</svg>
