<?xml version="1.0" encoding="UTF-8" standalone="no"?>

<svg
   width="800px"
   height="800px"
   viewBox="0 0 24 24"
   fill="none"
   version="1.1"
   id="svg1"
   sodipodi:docname="pokemon.svg"
   xmlns:sodipodi="http://sodipodi.sourceforge.net/DTD/sodipodi-0.dtd"
   xmlns="http://www.w3.org/2000/svg"
   xmlns:svg="http://www.w3.org/2000/svg">
  <defs
     id="defs1" />
  <path
     fill-rule="evenodd"
     clip-rule="evenodd"
     d="M 0,12 C 0,5.3725867 5.3725867,0 12,0 18.627467,0 24,5.3725867 24,12 24,18.627467 18.627467,24 12,24 5.3725867,24 0,18.627467 0,12 Z m 2.7611867,1.333333 c 0.6469733,4.523067 4.5368533,8 9.2388133,8 4.702,0 8.591867,-3.476933 9.2388,-8 H 15.7724 C 15.2232,14.886933 13.7416,16 12,16 10.2584,16 8.77668,14.886933 8.2275733,13.333333 Z M 21.2388,10.666667 C 20.591867,6.1436133 16.702,2.6666667 12,2.6666667 c -4.70196,0 -8.59184,3.4769466 -9.2388133,8.0000003 H 8.2275733 C 8.77668,9.11308 10.2584,8 12,8 c 1.7416,0 3.2232,1.11308 3.7724,2.666667 z M 12,13.333333 c 0.7364,0 1.333333,-0.596933 1.333333,-1.333333 0,-0.7364 -0.596933,-1.333333 -1.333333,-1.333333 -0.7364,0 -1.333333,0.596933 -1.333333,1.333333 0,0.7364 0.596933,1.333333 1.333333,1.333333 z"
     fill="#000000"
     id="path1"
     style="stroke-width:1.33333" />
</svg>
