<?xml version="1.0" encoding="UTF-8" standalone="no"?>

<svg
   fill="#000000"
   width="800px"
   height="800px"
   viewBox="0 0 24 24"
   version="1.1"
   id="svg1"
   sodipodi:docname="tipo.svg"
   xmlns:sodipodi="http://sodipodi.sourceforge.net/DTD/sodipodi-0.dtd"
   xmlns="http://www.w3.org/2000/svg"
   xmlns:svg="http://www.w3.org/2000/svg">
  <defs
     id="defs1" />
  <path
     d="M 11.999999,24 C 23.134909,24 24,15.674314 24,13.122296 24,7.2264805 19.854546,4.8402346 17.672727,4.3974486 a 1.090909,1.0906059 0 0 0 -1.2,1.5584759 4.0210908,4.0199735 0 0 1 0.511636,2.6250885 c -0.09491,0.1537754 -0.468,0.1712252 -0.62509,0.1712252 -0.859636,0 -1.249091,-1.1004215 -1.402909,-1.7558756 C 14.463273,4.911124 15.096,2.4027303 15.75709,2.0733673 A 1.090909,1.0906059 0 0 0 15.163636,0.00666899 C 14.847273,0.03829656 8.4349091,0.74828104 5.1523636,6.018089 A 2.5090909,2.5083937 0 0 1 5.3454545,4.8631373 1.090909,1.0906059 0 0 0 3.7570909,3.4704335 C 3.5999999,3.5729504 -6.5250002e-8,6.048626 -6.5250002e-8,12.028418 -6.5250002e-8,19.855698 4.1454544,24 11.999999,24 Z M 3.1494545,7.5863804 a 15.258545,15.254305 0 0 0 0.6599999,2.2586449 1.090909,1.0906059 0 0 0 2.0727274,-0.088339 10.370182,10.3673 0 0 1 7.0636362,-7.004962 9.7810909,9.778373 0 0 0 -0.109091,4.7463171 c 0.514909,2.1812119 1.80109,3.4354086 3.525818,3.4354086 a 2.6956363,2.6948873 0 0 0 2.480727,-1.2051194 3.430909,3.4299557 0 0 0 0.368727,-2.2597355 6.5138182,6.5120082 0 0 1 2.606183,5.6537009 c 0,3.243463 -1.275273,8.696492 -9.818183,8.696492 -6.6065445,0 -9.8181808,-3.20311 -9.8181808,-9.79037 A 9.8181818,9.8154536 0 0 1 3.1494545,7.5863804 Z"
     id="path1"
     style="stroke-width:1.09075" />
</svg>
